HIERARCHY
ROOT root
{
	OFFSET 0.000000 0.000000 0.000000
	CHANNELS 6 Xposition Yposition Zposition Zrotation Yrotation Xrotation
	JOINT lhip
	{
		OFFSET 0.058581 -0.082280 -0.017664
		CHANNELS 3 Zrotation Yrotation Xrotation
		JOINT lknee
		{
			OFFSET 0.043451 -0.386469 0.008037
			CHANNELS 3 Zrotation Yrotation Xrotation
			JOINT lankle
			{
				OFFSET -0.014790 -0.426874 -0.037428
				CHANNELS 3 Zrotation Yrotation Xrotation
				JOINT ltoe
				{
					OFFSET 0.041054 -0.060286 0.122042
					CHANNELS 3 Zrotation Yrotation Xrotation
					End Site
					{
						OFFSET 0.000000 0.000000 0.000000
					}
				}
			}
		}
	}
	JOINT rhip
	{
		OFFSET -0.060310 -0.090513 -0.013543
		CHANNELS 3 Zrotation Yrotation Xrotation
		JOINT rknee
		{
			OFFSET -0.043257 -0.383688 -0.004843
			CHANNELS 3 Zrotation Yrotation Xrotation
			JOINT rankle
			{
				OFFSET 0.019056 -0.420046 -0.034562
				CHANNELS 3 Zrotation Yrotation Xrotation
				JOINT rtoe
				{
					OFFSET -0.034840 -0.062106 0.130323
					CHANNELS 3 Zrotation Yrotation Xrotation
					End Site
					{
						OFFSET 0.000000 0.000000 0.000000
					}
				}
			}
		}
	}
	JOINT lowerback
	{
		OFFSET 0.004439 0.124404 -0.038385
		CHANNELS 3 Zrotation Yrotation Xrotation
		JOINT upperback
		{
			OFFSET 0.004488 0.137956 0.026820
			CHANNELS 3 Zrotation Yrotation Xrotation
			JOINT chest
			{
				OFFSET -0.002265 0.056032 0.002855
				CHANNELS 3 Zrotation Yrotation Xrotation
				JOINT lowerneck
				{
					OFFSET -0.013390 0.211636 -0.033468
					CHANNELS 3 Zrotation Yrotation Xrotation
					JOINT upperneck
					{
						OFFSET 0.010113 0.088937 0.050410
						CHANNELS 3 Zrotation Yrotation Xrotation
						End Site
						{
							OFFSET 0.000000 0.000000 0.000000
						}
					}
				}
				JOINT lclavicle
				{
					OFFSET 0.071702 0.114000 -0.018898
					CHANNELS 3 Zrotation Yrotation Xrotation
					JOINT lshoulder
					{
						OFFSET 0.122921 0.045205 -0.019046
						CHANNELS 3 Zrotation Yrotation Xrotation
						JOINT lelbow
						{
							OFFSET 0.255332 -0.015649 -0.022946
							CHANNELS 3 Zrotation Yrotation Xrotation
							JOINT lwrist
							{
								OFFSET 0.265709 0.012698 -0.007375
								CHANNELS 3 Zrotation Yrotation Xrotation
								End Site
								{
									OFFSET 0.000000 0.000000 0.000000
								}
							}
						}
					}
				}
				JOINT rclavicle
				{
					OFFSET -0.082954 0.112472 -0.023707
					CHANNELS 3 Zrotation Yrotation Xrotation
					JOINT rshoulder
					{
						OFFSET -0.113228 0.046853 -0.008472
						CHANNELS 3 Zrotation Yrotation Xrotation
						JOINT relbow
						{
							OFFSET -0.260127 -0.014369 -0.031269
							CHANNELS 3 Zrotation Yrotation Xrotation
							JOINT rwrist
							{
								OFFSET -0.269108 0.006794 -0.006027
								CHANNELS 3 Zrotation Yrotation Xrotation
								End Site
								{
									OFFSET 0.000000 0.000000 0.000000
								}
							}
						}
					}
				}
			}
		}
	}
}
MOTION
Frames: 8
Frame Time: 0.033333
0.110649 -0.861398 0.995060 179.262981 0.437999 85.733926 -1.362131 0.479001 -3.534069 -7.808676 -7.280033 13.302780 6.385695 9.607579 -11.354485 0.000000 -0.000000 0.000000 -6.200932 -3.795276 -25.883639 -1.475147 -14.688054 56.079382 4.163930 -14.468631 -7.189850 0.000000 -0.000000 0.000000 -2.524701 -0.695906 18.951197 0.682655 1.848623 -5.076504 0.510420 -0.027265 -0.399328 3.024696 5.132731 3.139657 -0.950825 5.191120 18.033452 -26.745161 -0.790366 2.003617 -47.444820 -9.285164 3.591647 18.758686 -27.265767 -6.762480 6.030362 -6.028308 1.086337 23.882110 2.698313 3.550576 49.067731 6.646802 12.462935 -10.966862 34.986007 6.995682 10.927629 3.561007 2.818799 
0.109046 -0.832401 0.994598 179.718377 0.872664 85.363271 -0.918669 1.774568 0.470579 -7.463589 -9.280045 11.085342 5.435727 9.357282 -12.247416 0.000000 -0.000000 0.000000 -5.480749 -3.241022 -29.052915 -0.807852 -15.198039 48.057458 4.981583 -13.472531 -7.061006 0.000000 -0.000000 0.000000 -2.060241 -1.921896 19.519664 0.357162 1.930952 -5.182491 0.807880 -0.281688 -0.137804 2.695777 5.837496 3.498533 -0.994222 5.449214 17.178428 -26.702216 -1.126677 1.853254 -46.356096 -9.918280 3.408522 18.973209 -29.884218 -7.482418 6.738781 -6.436232 1.205468 23.545045 2.884996 3.219415 49.272674 6.558179 12.432504 -11.532928 35.655435 6.444858 10.194334 3.874934 2.828787 
0.108803 -0.803467 0.992576 -179.775776 1.047591 85.468672 -0.643693 2.645063 3.574309 -6.959874 -10.777282 9.401032 5.235080 8.650014 -12.871050 0.000000 -0.000000 0.000000 -4.985020 -2.389373 -31.254335 -0.480816 -14.850320 37.203440 5.818990 -12.858381 -5.752380 0.000000 -0.000000 0.000000 -2.287472 -2.739354 19.760116 0.320039 1.941077 -5.278900 1.262979 -0.507563 -0.326995 2.594564 6.244877 4.053789 -0.928718 5.630000 16.762819 -26.331906 -1.287232 2.101464 -46.087392 -11.036407 3.378275 20.046929 -31.366220 -8.136502 6.802100 -7.058714 1.681733 23.513114 2.430827 3.150761 49.020937 6.615552 12.604964 -11.840160 36.664514 6.042450 9.404476 4.057697 2.970785 
0.111586 -0.758865 0.986499 -178.396796 0.961842 86.208339 0.044853 3.342662 7.117254 -6.781805 -12.526819 8.079130 5.079934 7.712122 -13.776814 0.000000 -0.000000 0.000000 -4.736082 -1.188379 -33.322248 1.255582 -11.293117 20.063278 7.626041 -10.052457 -2.952018 0.000000 -0.000000 0.000000 -3.260003 -3.433550 18.936220 0.656293 1.700796 -4.902937 1.784164 -1.153338 -0.624086 3.008806 6.744945 4.651726 -1.080111 5.737904 16.633131 -25.634697 -1.395148 2.764837 -45.693600 -12.748077 3.870135 21.507109 -33.156187 -8.719028 7.317414 -7.762764 1.753443 23.525325 1.214688 3.004882 48.527066 6.914516 13.437965 -11.637840 38.213356 6.299899 7.729125 4.211485 2.449230 
0.112921 -0.743476 0.983977 -177.774962 0.853940 86.627474 0.287468 3.697046 8.003459 -6.794908 -13.412288 7.845509 4.975008 7.439886 -14.177391 0.000000 -0.000000 0.000000 -4.696143 -1.052257 -34.499418 1.737079 -8.962945 17.198220 7.954413 -8.510863 -3.525090 0.000000 -0.000000 0.000000 -3.663089 -3.623767 18.319738 0.808706 1.595816 -4.617742 1.909408 -1.344274 -1.008615 3.029132 6.995933 5.147683 -1.029972 5.523132 16.434442 -25.249083 -1.493364 3.111417 -45.723717 -13.000223 4.072238 21.890605 -33.697496 -8.502452 7.547343 -7.616322 1.567180 23.497377 0.869083 3.391902 48.412585 6.834229 13.127799 -11.658083 39.076586 6.799943 7.685201 4.204487 2.117195 
0.115669 -0.711855 0.978460 -176.361760 0.560275 87.305620 0.860376 4.238100 9.930396 -6.829855 -15.195433 7.441801 4.278233 7.286249 -15.638990 0.000000 -0.000000 0.000000 -4.921452 -0.982786 -36.639758 2.595211 -5.059282 15.219928 9.499487 -4.636314 -3.329117 0.000000 -0.000000 0.000000 -4.354459 -4.009355 17.339063 1.025311 1.431233 -4.116767 2.171258 -1.740553 -1.523043 3.034709 7.419680 5.612871 -1.089851 5.086168 16.089608 -24.989980 -1.593526 3.147449 -45.553346 -13.115246 4.304720 22.195688 -34.943104 -8.696662 7.513047 -7.578637 2.075134 23.437949 0.195549 3.534587 48.111888 6.395421 12.502336 -11.796406 40.945062 7.420388 8.639055 3.910195 2.051534 
0.119047 -0.677835 0.972602 -174.707134 0.599599 87.570899 1.763368 4.116403 12.207426 -6.680499 -16.696131 7.519652 3.720731 7.381034 -16.035245 0.000000 -0.000000 0.000000 -5.160646 -0.012617 -36.734903 3.190416 -3.587788 16.518619 10.473739 -3.771363 -2.579349 0.000000 -0.000000 0.000000 -4.414108 -4.503792 16.447856 1.190368 1.398092 -3.714607 2.164982 -2.196243 -1.490489 3.188203 7.164030 5.466851 -1.494200 5.106261 16.332633 -25.179068 -1.475297 3.023829 -45.366099 -13.080409 4.570180 22.530308 -35.816063 -8.860576 7.516837 -7.920368 2.459898 23.199445 -0.296182 3.078871 47.642448 5.918735 12.689186 -11.414867 42.174327 8.556927 8.957133 3.910966 2.367732 
0.124003 -0.642448 0.967211 -173.173025 1.325449 87.576349 3.420614 3.517034 14.307512 -6.484742 -17.728866 8.593377 2.910656 7.690380 -16.026902 0.000000 -0.000000 0.000000 -4.737794 1.192430 -36.280253 3.265922 -4.696612 20.175169 10.369576 -3.418108 0.377494 0.000000 -0.000000 0.000000 -3.618743 -4.944035 15.903627 1.236035 1.435326 -3.267635 1.975837 -2.360302 -1.758444 2.846636 7.123684 5.100965 -1.786177 5.324811 16.165798 -25.501335 -1.483659 3.152796 -45.408796 -12.623240 4.463989 23.035230 -36.310614 -8.963956 6.614263 -8.091290 2.458079 23.189166 -0.497265 2.934585 46.732547 5.696763 12.340051 -10.641469 43.315294 10.294091 9.362126 4.024499 2.857180 
